<?xml version="1.0" encoding="UTF-8" standalone="no"?><svg xmlns="http://www.w3.org/2000/svg" xmlns:xlink= "http://www.w3.org/1999/xlink" width="600" height="390" aria-label="A chart." style="overflow: hidden;"><defs id="_ABSTRACT_RENDERER_ID_21"></defs><rect x="0" y="0" width="600" height="390" stroke="none" stroke-width="0" fill="#ffffff"></rect><g><text text-anchor="start" x="115" y="31.55" font-family="Arial" font-size="13" font-weight="bold" stroke="none" stroke-width="0" fill="#000000">Defi Index</text><rect x="115" y="20.5" width="371" height="13" stroke="none" stroke-width="0" fill-opacity="0" fill="#ffffff"></rect></g><g><rect x="115" y="41.5" width="371" height="13" stroke="none" stroke-width="0" fill-opacity="0" fill="#ffffff"></rect><g column-id="AVAX"><rect x="115" y="42" width="51" height="13" stroke="none" stroke-width="0" fill-opacity="0" fill="#ffffff"></rect><g><text text-anchor="start" x="133" y="53.05" font-family="Arial" font-size="13" stroke="none" stroke-width="0" fill="#222222">AVAX</text></g><circle cx="121.5" cy="48.5" r="6.5" stroke="none" stroke-width="0" fill="#3366cc"></circle></g><g column-id="LUNA"><rect x="187" y="42" width="53" height="13" stroke="none" stroke-width="0" fill-opacity="0" fill="#ffffff"></rect><g><text text-anchor="start" x="205" y="53.05" font-family="Arial" font-size="13" stroke="none" stroke-width="0" fill="#222222">LUNA</text></g><circle cx="193.5" cy="48.5" r="6.5" stroke="none" stroke-width="0" fill="#dc3912"></circle></g><g column-id="CAKE"><rect x="261" y="42" width="53" height="13" stroke="none" stroke-width="0" fill-opacity="0" fill="#ffffff"></rect><g><text text-anchor="start" x="279" y="53.05" font-family="Arial" font-size="13" stroke="none" stroke-width="0" fill="#222222">CAKE</text></g><circle cx="267.5" cy="48.5" r="6.5" stroke="none" stroke-width="0" fill="#ff9900"></circle></g><g column-id="SUSHI"><rect x="335" y="42" width="58" height="13" stroke="none" stroke-width="0" fill-opacity="0" fill="#ffffff"></rect><g><text text-anchor="start" x="353" y="53.05" font-family="Arial" font-size="13" stroke="none" stroke-width="0" fill="#222222">SUSHI</text></g><circle cx="341.5" cy="48.5" r="6.5" stroke="none" stroke-width="0" fill="#109618"></circle></g><path d="M445,55L445,42L432,49Z" stroke="none" stroke-width="0" fill="#cccccc"></path><g><text text-anchor="middle" x="459" y="53.05" font-family="Arial" font-size="13" stroke="none" stroke-width="0" fill="#0011cc">1/2</text></g><path d="M473,42L486,49L473,55Z" stroke="none" stroke-width="0" fill="#0011cc"></path></g><g><path d="M301,148L301,76A120,120,0,0,1,415.12678195541844,233.08203932499367L346.6507127821674,210.83281572999746A48,48,0,0,0,301,148" stroke="#ffffff" stroke-width="1" fill="#3366cc"></path><text text-anchor="start" x="357.0999412323223" y="147.80305516402794" font-family="Arial" font-size="13" stroke="none" stroke-width="0" fill="#ffffff">AVAX</text></g><g><path d="M272.7863078899613,157.16718427000254L230.46576972490323,98.91796067500631A120,120,0,0,1,301,76L301,148A48,48,0,0,0,272.7863078899613,157.16718427000254" stroke="#ffffff" stroke-width="1" fill="#0099c6"></path><text text-anchor="start" x="256.93116207361936" y="109.54647430057517" font-family="Arial" font-size="13" stroke="none" stroke-width="0" fill="#ffffff">SRM</text></g><g><path d="M255.34928721783263,181.1671842700025L186.87321804458156,158.91796067500627A120,120,0,0,1,230.46576972490323,98.91796067500631L272.7863078899613,157.16718427000254A48,48,0,0,0,255.34928721783263,181.1671842700025" stroke="#ffffff" stroke-width="1" fill="#990099"></path><text text-anchor="start" x="212.88906588840288" y="146.34198331371886" font-family="Arial" font-size="13" stroke="none" stroke-width="0" fill="#ffffff">CRV</text></g><g><path d="M262.1671842700025,224.21369211003872L203.91796067500633,266.5342302750968A120,120,0,0,1,186.87321804458156,158.91796067500627L255.34928721783263,181.1671842700025A48,48,0,0,0,262.1671842700025,224.21369211003872" stroke="#ffffff" stroke-width="1" fill="#109618"></path><text text-anchor="start" x="195.88222599590506" y="214.03133099730897" font-family="Arial" font-size="13" stroke="none" stroke-width="0" fill="#ffffff">SUSHI</text></g><g><path d="M301,244L301,316A120,120,0,0,1,203.91796067500633,266.5342302750968L262.1671842700025,224.21369211003872A48,48,0,0,0,301,244" stroke="#ffffff" stroke-width="1" fill="#ff9900"></path><text text-anchor="start" x="241.49942549244844" y="282.98076876577255" font-family="Arial" font-size="13" stroke="none" stroke-width="0" fill="#ffffff">CAKE</text></g><g><path d="M346.6507127821674,210.83281572999746L415.12678195541844,233.08203932499367A120,120,0,0,1,301,316L301,244A48,48,0,0,0,346.6507127821674,210.83281572999746" stroke="#ffffff" stroke-width="1" fill="#dc3912"></path><text text-anchor="start" x="336.9617975610138" y="274.1338515988692" font-family="Arial" font-size="13" stroke="none" stroke-width="0" fill="#ffffff">LUNA</text></g><g></g></svg>