<?xml version="1.0" encoding="UTF-8" standalone="no"?><svg xmlns="http://www.w3.org/2000/svg" xmlns:xlink= "http://www.w3.org/1999/xlink" width="600" height="390" aria-label="A chart." style="overflow: hidden;"><defs id="_ABSTRACT_RENDERER_ID_23"></defs><rect x="0" y="0" width="600" height="390" stroke="none" stroke-width="0" fill="#ffffff"></rect><g><text text-anchor="start" x="115" y="31.55" font-family="Arial" font-size="13" font-weight="bold" stroke="none" stroke-width="0" fill="#000000">Aggressive Index</text><rect x="115" y="20.5" width="371" height="13" stroke="none" stroke-width="0" fill-opacity="0" fill="#ffffff"></rect></g><g><rect x="115" y="41.5" width="371" height="13" stroke="none" stroke-width="0" fill-opacity="0" fill="#ffffff"></rect><g column-id="BSW"><rect x="115" y="42" width="48" height="13" stroke="none" stroke-width="0" fill-opacity="0" fill="#ffffff"></rect><g><text text-anchor="start" x="133" y="53.05" font-family="Arial" font-size="13" stroke="none" stroke-width="0" fill="#222222">BSW</text></g><circle cx="121.5" cy="48.5" r="6.5" stroke="none" stroke-width="0" fill="#3366cc"></circle></g><g column-id="SRM"><rect x="184" y="42" width="47" height="13" stroke="none" stroke-width="0" fill-opacity="0" fill="#ffffff"></rect><g><text text-anchor="start" x="202" y="53.05" font-family="Arial" font-size="13" stroke="none" stroke-width="0" fill="#222222">SRM</text></g><circle cx="190.5" cy="48.5" r="6.5" stroke="none" stroke-width="0" fill="#dc3912"></circle></g><g column-id="APE"><rect x="252" y="42" width="44" height="13" stroke="none" stroke-width="0" fill-opacity="0" fill="#ffffff"></rect><g><text text-anchor="start" x="270" y="53.05" font-family="Arial" font-size="13" stroke="none" stroke-width="0" fill="#222222">APE</text></g><circle cx="258.5" cy="48.5" r="6.5" stroke="none" stroke-width="0" fill="#ff9900"></circle></g><g column-id="MANA"><rect x="317" y="42" width="56" height="13" stroke="none" stroke-width="0" fill-opacity="0" fill="#ffffff"></rect><g><text text-anchor="start" x="335" y="53.05" font-family="Arial" font-size="13" stroke="none" stroke-width="0" fill="#222222">MANA</text></g><circle cx="323.5" cy="48.5" r="6.5" stroke="none" stroke-width="0" fill="#109618"></circle></g><path d="M445,55L445,42L432,49Z" stroke="none" stroke-width="0" fill="#cccccc"></path><g><text text-anchor="middle" x="459" y="53.05" font-family="Arial" font-size="13" stroke="none" stroke-width="0" fill="#0011cc">1/2</text></g><path d="M473,42L486,49L473,55Z" stroke="none" stroke-width="0" fill="#0011cc"></path></g><g><path d="M301,148L301,76A120,120,0,0,1,394.81977789616354,121.18122377695197L338.52791115846543,166.0724895107808A48,48,0,0,0,301,148" stroke="#ffffff" stroke-width="1" fill="#3366cc"></path><text text-anchor="start" x="326.8283192263586" y="115.76912154038064" font-family="Arial" font-size="13" stroke="none" stroke-width="0" fill="#ffffff">BSW</text></g><g><path d="M338.52791115846543,166.0724895107808L394.81977789616354,121.18122377695197A120,120,0,0,1,417.9913494618188,222.7025120747577L347.79653978472754,206.6810048299031A48,48,0,0,0,338.52791115846543,166.0724895107808" stroke="#ffffff" stroke-width="1" fill="#dc3912"></path><text text-anchor="start" x="375.5810537477799" y="180.21783079027102" font-family="Arial" font-size="13" stroke="none" stroke-width="0" fill="#ffffff">SRM</text></g><g><path d="M347.79653978472754,206.6810048299031L417.9913494618188,222.7025120747577A120,120,0,0,1,353.066048694107,304.11626414829027L321.8264194776428,239.2465056593161A48,48,0,0,0,347.79653978472754,206.6810048299031" stroke="#ffffff" stroke-width="1" fill="#ff9900"></path><text text-anchor="start" x="360.50766307897356" y="258.3729317955326" font-family="Arial" font-size="13" stroke="none" stroke-width="0" fill="#ffffff">APE</text></g><g><path d="M263.47208884153457,166.0724895107808L207.1802221038364,121.181223776952A120,120,0,0,1,301,76L301,148A48,48,0,0,0,263.47208884153457,166.0724895107808" stroke="#ffffff" stroke-width="1" fill="#dd4477"></path><text text-anchor="start" x="246.72330817943504" y="114.8380662548745" font-family="Arial" font-size="13" stroke="none" stroke-width="0" fill="#ffffff">RAY</text></g><g><path d="M254.20346021527246,206.6810048299031L184.00865053818117,222.70251207475775A120,120,0,0,1,207.18022210383646,121.18122377695194L263.47208884153457,166.07248951078077A48,48,0,0,0,254.20346021527246,206.6810048299031" stroke="#ffffff" stroke-width="1" fill="#0099c6"></path><text text-anchor="start" x="197.50319156050085" y="179.8946940205489" font-family="Arial" font-size="13" stroke="none" stroke-width="0" fill="#ffffff">SXP</text></g><g><path d="M280.1735805223572,239.24650565931614L248.9339513058931,304.1162641482903A120,120,0,0,1,184.00865053818117,222.7025120747578L254.20346021527246,206.68100482990312A48,48,0,0,0,280.1735805223572,239.24650565931614" stroke="#ffffff" stroke-width="1" fill="#990099"></path><text text-anchor="start" x="213.4731208447422" y="255.59709924391964" font-family="Arial" font-size="13" stroke="none" stroke-width="0" fill="#ffffff">ROSE</text></g><g><path d="M321.8264194776428,239.2465056593161L353.066048694107,304.11626414829027A120,120,0,0,1,248.9339513058931,304.1162641482903L280.1735805223572,239.24650565931614A48,48,0,0,0,321.8264194776428,239.2465056593161" stroke="#ffffff" stroke-width="1" fill="#109618"></path><text text-anchor="start" x="282" y="299.3495726487055" font-family="Arial" font-size="13" stroke="none" stroke-width="0" fill="#ffffff">MANA</text></g><g></g></svg>