<?xml version="1.0" encoding="UTF-8" standalone="no"?><svg xmlns="http://www.w3.org/2000/svg" xmlns:xlink= "http://www.w3.org/1999/xlink" width="600" height="390" aria-label="A chart." style="overflow: hidden;"><defs id="_ABSTRACT_RENDERER_ID_18"></defs><rect x="0" y="0" width="600" height="390" stroke="none" stroke-width="0" fill="#ffffff"></rect><g><text text-anchor="start" x="115" y="31.55" font-family="Arial" font-size="13" font-weight="bold" stroke="none" stroke-width="0" fill="#000000">Stable Index</text><rect x="115" y="20.5" width="371" height="13" stroke="none" stroke-width="0" fill-opacity="0" fill="#ffffff"></rect></g><g><rect x="115" y="42" width="320" height="13" stroke="none" stroke-width="0" fill-opacity="0" fill="#ffffff"></rect><g column-id="BTC"><rect x="115" y="42" width="44" height="13" stroke="none" stroke-width="0" fill-opacity="0" fill="#ffffff"></rect><g><text text-anchor="start" x="133" y="53.05" font-family="Arial" font-size="13" stroke="none" stroke-width="0" fill="#222222">BTC</text></g><circle cx="121.5" cy="48.5" r="6.5" stroke="none" stroke-width="0" fill="#3366cc"></circle></g><g column-id="ETH"><rect x="180" y="42" width="44" height="13" stroke="none" stroke-width="0" fill-opacity="0" fill="#ffffff"></rect><g><text text-anchor="start" x="198" y="53.05" font-family="Arial" font-size="13" stroke="none" stroke-width="0" fill="#222222">ETH</text></g><circle cx="186.5" cy="48.5" r="6.5" stroke="none" stroke-width="0" fill="#dc3912"></circle></g><g column-id="AVAX"><rect x="245" y="42" width="51" height="13" stroke="none" stroke-width="0" fill-opacity="0" fill="#ffffff"></rect><g><text text-anchor="start" x="263" y="53.05" font-family="Arial" font-size="13" stroke="none" stroke-width="0" fill="#222222">AVAX</text></g><circle cx="251.5" cy="48.5" r="6.5" stroke="none" stroke-width="0" fill="#ff9900"></circle></g><g column-id="LUNA"><rect x="317" y="42" width="53" height="13" stroke="none" stroke-width="0" fill-opacity="0" fill="#ffffff"></rect><g><text text-anchor="start" x="335" y="53.05" font-family="Arial" font-size="13" stroke="none" stroke-width="0" fill="#222222">LUNA</text></g><circle cx="323.5" cy="48.5" r="6.5" stroke="none" stroke-width="0" fill="#109618"></circle></g><g column-id="SOL"><rect x="391" y="42" width="44" height="13" stroke="none" stroke-width="0" fill-opacity="0" fill="#ffffff"></rect><g><text text-anchor="start" x="409" y="53.05" font-family="Arial" font-size="13" stroke="none" stroke-width="0" fill="#222222">SOL</text></g><circle cx="397.5" cy="48.5" r="6.5" stroke="none" stroke-width="0" fill="#990099"></circle></g></g><g><path d="M272.7863078899613,157.16718427000254L230.46576972490323,98.91796067500631A120,120,0,0,1,301,76L301,148A48,48,0,0,0,272.7863078899613,157.16718427000254" stroke="#ffffff" stroke-width="1" fill="#990099"></path><text text-anchor="start" x="258.24207605552226" y="108.96452737556771" font-family="Arial" font-size="13" stroke="none" stroke-width="0" fill="#ffffff">SOL</text></g><g><path d="M255.34928721783263,181.1671842700025L186.87321804458156,158.91796067500627A120,120,0,0,1,230.46576972490323,98.91796067500631L272.7863078899613,157.16718427000254A48,48,0,0,0,255.34928721783263,181.1671842700025" stroke="#ffffff" stroke-width="1" fill="#109618"></path><text text-anchor="start" x="211.57562559415572" y="148.2938831939739" font-family="Arial" font-size="13" stroke="none" stroke-width="0" fill="#ffffff">LUNA</text></g><g><path d="M255.34928721783263,210.8328157299975L186.8732180445816,233.08203932499376A120,120,0,0,1,186.87321804458156,158.91796067500627L255.34928721783263,181.1671842700025A48,48,0,0,0,255.34928721783263,210.8328157299975" stroke="#ffffff" stroke-width="1" fill="#ff9900"></path><text text-anchor="start" x="194.19761238623923" y="200.55000000000004" font-family="Arial" font-size="13" stroke="none" stroke-width="0" fill="#ffffff">AVAX</text></g><g><path d="M301,244L301,316A120,120,0,0,1,186.8732180445816,233.08203932499376L255.34928721783263,210.8328157299975A48,48,0,0,0,301,244" stroke="#ffffff" stroke-width="1" fill="#dc3912"></path><text text-anchor="start" x="232.81259515185684" y="276.5089462707075" font-family="Arial" font-size="13" stroke="none" stroke-width="0" fill="#ffffff">ETH</text></g><g><path d="M301,148L301,76A120,120,0,0,1,301,316L301,244A48,48,0,0,0,301,148" stroke="#ffffff" stroke-width="1" fill="#3366cc"></path><text text-anchor="start" x="381.80238761376074" y="200.55" font-family="Arial" font-size="13" stroke="none" stroke-width="0" fill="#ffffff">BTC</text></g><g></g></svg>